<svg width="22" height="22" viewBox="0 0 22 22" fill="none" xmlns="http://www.w3.org/2000/svg">
<path fill-rule="evenodd" clip-rule="evenodd" d="M18.2358 18.2343C15.1086 21.3618 10.4779 22.0375 6.68843 20.285C6.129 20.0598 5.67036 19.8778 5.23433 19.8778C4.01985 19.885 2.50817 21.0626 1.72251 20.2778C0.936845 19.4921 2.11534 17.9792 2.11534 16.7574C2.11534 16.3213 1.94052 15.8709 1.71531 15.3103C-0.0380337 11.5215 0.638623 6.88926 3.76585 3.76272C7.75791 -0.230814 14.2437 -0.230814 18.2358 3.76169C22.2351 7.7614 22.2279 14.2418 18.2358 18.2343Z" stroke="#262626" stroke-width="1.5" stroke-linecap="round" stroke-linejoin="round"/>
<path d="M15.0315 11.4217H15.0407" stroke="#262626" stroke-width="2" stroke-linecap="round" stroke-linejoin="round"/>
<path d="M10.9284 11.4217H10.9377" stroke="#262626" stroke-width="2" stroke-linecap="round" stroke-linejoin="round"/>
<path d="M6.82643 11.4217H6.83564" stroke="#262626" stroke-width="2" stroke-linecap="round" stroke-linejoin="round"/>
</svg>
