<svg width="15" height="15" viewBox="0 0 15 15" fill="none" xmlns="http://www.w3.org/2000/svg">
<path fill-rule="evenodd" clip-rule="evenodd" d="M12.4329 12.4319C10.3008 14.5642 7.1437 15.0249 4.56008 13.8301C4.17868 13.6765 3.86598 13.5524 3.5687 13.5524C2.74068 13.5573 1.71004 14.3602 1.17438 13.8252C0.638729 13.2895 1.44221 12.258 1.44221 11.425C1.44221 11.1277 1.32302 10.8206 1.16948 10.4384C-0.0259309 7.8552 0.435405 4.69701 2.56751 2.56538C5.28925 -0.157366 9.7112 -0.157366 12.4329 2.56468C15.1596 5.29162 15.1547 9.70986 12.4329 12.4319Z" stroke="#999999" stroke-linecap="round" stroke-linejoin="round"/>
<path d="M10.2483 7.78853H10.2545" stroke="#999999" stroke-width="1.5" stroke-linecap="round" stroke-linejoin="round"/>
<path d="M7.45019 7.78853H7.45647" stroke="#999999" stroke-width="1.5" stroke-linecap="round" stroke-linejoin="round"/>
<path d="M4.65417 7.78853H4.66045" stroke="#999999" stroke-width="1.5" stroke-linecap="round" stroke-linejoin="round"/>
</svg>
