<svg width="19" height="19" viewBox="0 0 19 19" fill="none" xmlns="http://www.w3.org/2000/svg">
<path fill-rule="evenodd" clip-rule="evenodd" d="M15.6628 15.6615C12.9993 18.3254 9.05515 18.9009 5.82751 17.4082C5.35102 17.2164 4.96038 17.0613 4.589 17.0613C3.55458 17.0675 2.26703 18.0705 1.59785 17.4021C0.928677 16.7329 1.93244 15.4443 1.93244 14.4036C1.93244 14.0322 1.78354 13.6485 1.59172 13.1711C0.0983369 9.94399 0.67467 5.99857 3.33824 3.33558C6.73843 -0.0658609 12.2626 -0.0658607 15.6628 3.3347C19.0692 6.7414 19.063 12.261 15.6628 15.6615Z" stroke="#262626" stroke-width="1.5" stroke-linecap="round" stroke-linejoin="round"/>
<path d="M12.9331 9.8607H12.9409" stroke="#262626" stroke-width="2" stroke-linecap="round" stroke-linejoin="round"/>
<path d="M9.43905 9.8607H9.4469" stroke="#262626" stroke-width="2" stroke-linecap="round" stroke-linejoin="round"/>
<path d="M5.94505 9.8607H5.95289" stroke="#262626" stroke-width="2" stroke-linecap="round" stroke-linejoin="round"/>
</svg>
