<svg width="14" height="14" viewBox="0 0 14 14" fill="none" xmlns="http://www.w3.org/2000/svg">
<path d="M10.0507 2.53143L7.95806 0.911315C7.68804 0.641296 7.0805 0.506286 6.67547 0.506286H4.11028C3.30022 0.506286 2.42266 1.11383 2.22015 1.92389L0.600032 6.85174C0.262508 7.79681 0.870052 8.60686 1.88262 8.60686H4.58282C4.98785 8.60686 5.32537 8.94439 5.25787 9.41692L4.92034 11.5771C4.78533 12.1846 5.19036 12.8597 5.7979 13.0622C6.33794 13.2647 7.01299 12.9947 7.28301 12.5896L10.0507 8.47185" stroke="#999999" stroke-miterlimit="10"/>
<path d="M13.4931 2.53051V9.14598C13.4931 10.091 13.088 10.4286 12.143 10.4286H11.4679C10.5228 10.4286 10.1178 10.091 10.1178 9.14598V2.53051C10.1178 1.58544 10.5228 1.24792 11.4679 1.24792H12.143C13.088 1.24792 13.4931 1.58544 13.4931 2.53051Z" stroke="#999999" stroke-linecap="round" stroke-linejoin="round"/>
</svg>
