<svg width="18" height="16" viewBox="0 0 18 16" fill="none" xmlns="http://www.w3.org/2000/svg">
<path d="M7.12437 12.9235H0.784179" stroke="#592E2C" stroke-width="1.5" stroke-linecap="round" stroke-linejoin="round"/>
<path d="M9.95259 3.16942H16.2928" stroke="#592E2C" stroke-width="1.5" stroke-linecap="round" stroke-linejoin="round"/>
<path fill-rule="evenodd" clip-rule="evenodd" d="M5.51059 3.11565C5.51059 1.81188 4.44581 0.754698 3.13265 0.754698C1.81949 0.754698 0.754698 1.81188 0.754698 3.11565C0.754698 4.41942 1.81949 5.4766 3.13265 5.4766C4.44581 5.4766 5.51059 4.41942 5.51059 3.11565Z" stroke="#592E2C" stroke-width="1.5" stroke-linecap="round" stroke-linejoin="round"/>
<path fill-rule="evenodd" clip-rule="evenodd" d="M16.8547 12.8835C16.8547 11.5797 15.7907 10.5225 14.4775 10.5225C13.1635 10.5225 12.0988 11.5797 12.0988 12.8835C12.0988 14.1873 13.1635 15.2444 14.4775 15.2444C15.7907 15.2444 16.8547 14.1873 16.8547 12.8835Z" stroke="#592E2C" stroke-width="1.5" stroke-linecap="round" stroke-linejoin="round"/>
</svg>
