<svg width="464" height="134" viewBox="0 0 464 134" fill="none" xmlns="http://www.w3.org/2000/svg">
<g filter="url(#filter0_d_23_7685)">
<path fill-rule="evenodd" clip-rule="evenodd" d="M114.275 36C98.6594 36 83.6161 18 68 18C66.5406 18 65.1217 18.1737 63.763 18.5015C50.8779 21.6103 39.2548 36 26 36C21.5817 36 18 39.5817 18 44V108C18 112.418 21.5817 116 26 116H438C442.418 116 446 112.418 446 108V44C446 39.5817 442.418 36 438 36H114.275Z" fill="white"/>
</g>
<circle cx="68" cy="36" r="6" fill="#FACD02"/>
<path fill-rule="evenodd" clip-rule="evenodd" d="M52 74.855C52 65.47 53.0233 66.125 58.5317 61.0166C60.9417 59.0766 64.6917 55.3333 67.93 55.3333C71.1667 55.3333 74.9917 59.0583 77.4233 61.0166C82.9317 66.125 83.9533 65.47 83.9533 74.855C83.9533 88.6666 80.6883 88.6666 67.9767 88.6666C55.265 88.6666 52 88.6666 52 74.855Z" fill="#FACD02" stroke="#FACD02" stroke-linecap="round" stroke-linejoin="round"/>
<path d="M63.1313 78.8925H72.823" stroke="white" stroke-width="1.5" stroke-linecap="round" stroke-linejoin="round"/>
<path fill-rule="evenodd" clip-rule="evenodd" d="M136 58.5C136 55.8748 136.028 55 139.5 55C142.972 55 143 55.8748 143 58.5C143 61.1252 143.011 62 139.5 62C135.989 62 136 61.1252 136 58.5Z" stroke="#999999" stroke-width="1.5" stroke-linecap="round" stroke-linejoin="round"/>
<path fill-rule="evenodd" clip-rule="evenodd" d="M147 58.5C147 55.8748 147.028 55 150.5 55C153.972 55 154 55.8748 154 58.5C154 61.1252 154.011 62 150.5 62C146.989 62 147 61.1252 147 58.5Z" stroke="#999999" stroke-width="1.5" stroke-linecap="round" stroke-linejoin="round"/>
<path fill-rule="evenodd" clip-rule="evenodd" d="M136 69.5C136 66.8748 136.028 66 139.5 66C142.972 66 143 66.8748 143 69.5C143 72.1252 143.011 73 139.5 73C135.989 73 136 72.1252 136 69.5Z" stroke="#999999" stroke-width="1.5" stroke-linecap="round" stroke-linejoin="round"/>
<path fill-rule="evenodd" clip-rule="evenodd" d="M147 69.5C147 66.8748 147.028 66 150.5 66C153.972 66 154 66.8748 154 69.5C154 72.1252 154.011 73 150.5 73C146.989 73 147 72.1252 147 69.5Z" stroke="#999999" stroke-width="1.5" stroke-linecap="round" stroke-linejoin="round"/>
<path d="M127.634 95.224C127.698 95.224 127.754 95.25 127.802 95.302L128.264 95.8C127.912 96.208 127.484 96.526 126.98 96.754C126.48 96.982 125.874 97.096 125.162 97.096C124.546 97.096 123.986 96.99 123.482 96.778C122.978 96.562 122.548 96.262 122.192 95.878C121.836 95.49 121.56 95.026 121.364 94.486C121.168 93.946 121.07 93.352 121.07 92.704C121.07 92.056 121.172 91.462 121.376 90.922C121.58 90.382 121.866 89.918 122.234 89.53C122.606 89.142 123.05 88.842 123.566 88.63C124.082 88.414 124.652 88.306 125.276 88.306C125.888 88.306 126.428 88.404 126.896 88.6C127.364 88.796 127.776 89.062 128.132 89.398L127.748 89.932C127.724 89.972 127.692 90.006 127.652 90.034C127.616 90.058 127.566 90.07 127.502 90.07C127.43 90.07 127.342 90.032 127.238 89.956C127.134 89.876 126.998 89.788 126.83 89.692C126.662 89.596 126.452 89.51 126.2 89.434C125.948 89.354 125.638 89.314 125.27 89.314C124.826 89.314 124.42 89.392 124.052 89.548C123.684 89.7 123.366 89.922 123.098 90.214C122.834 90.506 122.628 90.862 122.48 91.282C122.332 91.702 122.258 92.176 122.258 92.704C122.258 93.24 122.334 93.718 122.486 94.138C122.642 94.558 122.852 94.914 123.116 95.206C123.384 95.494 123.698 95.714 124.058 95.866C124.422 96.018 124.814 96.094 125.234 96.094C125.49 96.094 125.72 96.08 125.924 96.052C126.132 96.02 126.322 95.972 126.494 95.908C126.67 95.844 126.832 95.764 126.98 95.668C127.132 95.568 127.282 95.45 127.43 95.314C127.498 95.254 127.566 95.224 127.634 95.224ZM132.656 94.264C132.164 94.28 131.744 94.32 131.396 94.384C131.052 94.444 130.77 94.524 130.55 94.624C130.334 94.724 130.176 94.842 130.076 94.978C129.98 95.114 129.932 95.266 129.932 95.434C129.932 95.594 129.958 95.732 130.01 95.848C130.062 95.964 130.132 96.06 130.22 96.136C130.312 96.208 130.418 96.262 130.538 96.298C130.662 96.33 130.794 96.346 130.934 96.346C131.122 96.346 131.294 96.328 131.45 96.292C131.606 96.252 131.752 96.196 131.888 96.124C132.028 96.052 132.16 95.966 132.284 95.866C132.412 95.766 132.536 95.652 132.656 95.524V94.264ZM129.206 91.78C129.542 91.456 129.904 91.214 130.292 91.054C130.68 90.894 131.11 90.814 131.582 90.814C131.922 90.814 132.224 90.87 132.488 90.982C132.752 91.094 132.974 91.25 133.154 91.45C133.334 91.65 133.47 91.892 133.562 92.176C133.654 92.46 133.7 92.772 133.7 93.112V97H133.226C133.122 97 133.042 96.984 132.986 96.952C132.93 96.916 132.886 96.848 132.854 96.748L132.734 96.172C132.574 96.32 132.418 96.452 132.266 96.568C132.114 96.68 131.954 96.776 131.786 96.856C131.618 96.932 131.438 96.99 131.246 97.03C131.058 97.074 130.848 97.096 130.616 97.096C130.38 97.096 130.158 97.064 129.95 97C129.742 96.932 129.56 96.832 129.404 96.7C129.252 96.568 129.13 96.402 129.038 96.202C128.95 95.998 128.906 95.758 128.906 95.482C128.906 95.242 128.972 95.012 129.104 94.792C129.236 94.568 129.45 94.37 129.746 94.198C130.042 94.026 130.428 93.886 130.904 93.778C131.38 93.666 131.964 93.602 132.656 93.586V93.112C132.656 92.64 132.554 92.284 132.35 92.044C132.146 91.8 131.848 91.678 131.456 91.678C131.192 91.678 130.97 91.712 130.79 91.78C130.614 91.844 130.46 91.918 130.328 92.002C130.2 92.082 130.088 92.156 129.992 92.224C129.9 92.288 129.808 92.32 129.716 92.32C129.644 92.32 129.582 92.302 129.53 92.266C129.478 92.226 129.434 92.178 129.398 92.122L129.206 91.78ZM137.11 97.096C136.63 97.096 136.26 96.962 136 96.694C135.744 96.426 135.616 96.04 135.616 95.536V91.816H134.884C134.82 91.816 134.766 91.798 134.722 91.762C134.678 91.722 134.656 91.662 134.656 91.582V91.156L135.652 91.03L135.898 89.152C135.91 89.092 135.936 89.044 135.976 89.008C136.02 88.968 136.076 88.948 136.144 88.948H136.684V91.042H138.442V91.816H136.684V95.464C136.684 95.72 136.746 95.91 136.87 96.034C136.994 96.158 137.154 96.22 137.35 96.22C137.462 96.22 137.558 96.206 137.638 96.178C137.722 96.146 137.794 96.112 137.854 96.076C137.914 96.04 137.964 96.008 138.004 95.98C138.048 95.948 138.086 95.932 138.118 95.932C138.174 95.932 138.224 95.966 138.268 96.034L138.58 96.544C138.396 96.716 138.174 96.852 137.914 96.952C137.654 97.048 137.386 97.096 137.11 97.096ZM143.578 93.298C143.578 93.05 143.542 92.824 143.47 92.62C143.402 92.412 143.3 92.234 143.164 92.086C143.032 91.934 142.87 91.818 142.678 91.738C142.486 91.654 142.268 91.612 142.024 91.612C141.512 91.612 141.106 91.762 140.806 92.062C140.51 92.358 140.326 92.77 140.254 93.298H143.578ZM144.442 96.148C144.31 96.308 144.152 96.448 143.968 96.568C143.784 96.684 143.586 96.78 143.374 96.856C143.166 96.932 142.95 96.988 142.726 97.024C142.502 97.064 142.28 97.084 142.06 97.084C141.64 97.084 141.252 97.014 140.896 96.874C140.544 96.73 140.238 96.522 139.978 96.25C139.722 95.974 139.522 95.634 139.378 95.23C139.234 94.826 139.162 94.362 139.162 93.838C139.162 93.414 139.226 93.018 139.354 92.65C139.486 92.282 139.674 91.964 139.918 91.696C140.162 91.424 140.46 91.212 140.812 91.06C141.164 90.904 141.56 90.826 142 90.826C142.364 90.826 142.7 90.888 143.008 91.012C143.32 91.132 143.588 91.308 143.812 91.54C144.04 91.768 144.218 92.052 144.346 92.392C144.474 92.728 144.538 93.112 144.538 93.544C144.538 93.712 144.52 93.824 144.484 93.88C144.448 93.936 144.38 93.964 144.28 93.964H140.218C140.23 94.348 140.282 94.682 140.374 94.966C140.47 95.25 140.602 95.488 140.77 95.68C140.938 95.868 141.138 96.01 141.37 96.106C141.602 96.198 141.862 96.244 142.15 96.244C142.418 96.244 142.648 96.214 142.84 96.154C143.036 96.09 143.204 96.022 143.344 95.95C143.484 95.878 143.6 95.812 143.692 95.752C143.788 95.688 143.87 95.656 143.938 95.656C144.026 95.656 144.094 95.69 144.142 95.758L144.442 96.148ZM147.968 94.03C148.184 94.03 148.374 94 148.538 93.94C148.702 93.88 148.84 93.796 148.952 93.688C149.064 93.58 149.148 93.452 149.204 93.304C149.26 93.152 149.288 92.986 149.288 92.806C149.288 92.434 149.174 92.138 148.946 91.918C148.722 91.698 148.396 91.588 147.968 91.588C147.536 91.588 147.206 91.698 146.978 91.918C146.754 92.138 146.642 92.434 146.642 92.806C146.642 92.986 146.67 93.152 146.726 93.304C146.786 93.452 146.872 93.58 146.984 93.688C147.096 93.796 147.234 93.88 147.398 93.94C147.562 94 147.752 94.03 147.968 94.03ZM149.894 97.33C149.894 97.182 149.852 97.062 149.768 96.97C149.684 96.878 149.57 96.806 149.426 96.754C149.286 96.702 149.122 96.666 148.934 96.646C148.746 96.622 148.546 96.604 148.334 96.592C148.126 96.58 147.914 96.568 147.698 96.556C147.482 96.544 147.274 96.524 147.074 96.496C146.85 96.6 146.666 96.732 146.522 96.892C146.382 97.048 146.312 97.232 146.312 97.444C146.312 97.58 146.346 97.706 146.414 97.822C146.486 97.942 146.594 98.044 146.738 98.128C146.882 98.216 147.062 98.284 147.278 98.332C147.498 98.384 147.756 98.41 148.052 98.41C148.34 98.41 148.598 98.384 148.826 98.332C149.054 98.28 149.246 98.206 149.402 98.11C149.562 98.014 149.684 97.9 149.768 97.768C149.852 97.636 149.894 97.49 149.894 97.33ZM150.98 91.162V91.558C150.98 91.69 150.896 91.774 150.728 91.81L150.038 91.9C150.174 92.164 150.242 92.456 150.242 92.776C150.242 93.072 150.184 93.342 150.068 93.586C149.956 93.826 149.8 94.032 149.6 94.204C149.4 94.376 149.16 94.508 148.88 94.6C148.6 94.692 148.296 94.738 147.968 94.738C147.684 94.738 147.416 94.704 147.164 94.636C147.036 94.716 146.938 94.802 146.87 94.894C146.802 94.982 146.768 95.072 146.768 95.164C146.768 95.308 146.826 95.418 146.942 95.494C147.062 95.566 147.218 95.618 147.41 95.65C147.602 95.682 147.82 95.702 148.064 95.71C148.312 95.718 148.564 95.732 148.82 95.752C149.08 95.768 149.332 95.798 149.576 95.842C149.824 95.886 150.044 95.958 150.236 96.058C150.428 96.158 150.582 96.296 150.698 96.472C150.818 96.648 150.878 96.876 150.878 97.156C150.878 97.416 150.812 97.668 150.68 97.912C150.552 98.156 150.366 98.372 150.122 98.56C149.878 98.752 149.578 98.904 149.222 99.016C148.87 99.132 148.472 99.19 148.028 99.19C147.584 99.19 147.196 99.146 146.864 99.058C146.532 98.97 146.256 98.852 146.036 98.704C145.816 98.556 145.65 98.384 145.538 98.188C145.43 97.996 145.376 97.794 145.376 97.582C145.376 97.282 145.47 97.028 145.658 96.82C145.846 96.612 146.104 96.446 146.432 96.322C146.252 96.242 146.108 96.136 146 96.004C145.896 95.868 145.844 95.686 145.844 95.458C145.844 95.37 145.86 95.28 145.892 95.188C145.924 95.092 145.972 94.998 146.036 94.906C146.104 94.81 146.186 94.72 146.282 94.636C146.378 94.552 146.49 94.478 146.618 94.414C146.318 94.246 146.084 94.024 145.916 93.748C145.748 93.468 145.664 93.144 145.664 92.776C145.664 92.48 145.72 92.212 145.832 91.972C145.948 91.728 146.108 91.522 146.312 91.354C146.516 91.182 146.758 91.05 147.038 90.958C147.322 90.866 147.632 90.82 147.968 90.82C148.232 90.82 148.478 90.85 148.706 90.91C148.934 90.966 149.142 91.05 149.33 91.162H150.98ZM154.553 90.826C154.997 90.826 155.397 90.9 155.753 91.048C156.109 91.196 156.413 91.406 156.665 91.678C156.917 91.95 157.109 92.28 157.241 92.668C157.377 93.052 157.445 93.482 157.445 93.958C157.445 94.438 157.377 94.87 157.241 95.254C157.109 95.638 156.917 95.966 156.665 96.238C156.413 96.51 156.109 96.72 155.753 96.868C155.397 97.012 154.997 97.084 154.553 97.084C154.105 97.084 153.701 97.012 153.341 96.868C152.985 96.72 152.681 96.51 152.429 96.238C152.177 95.966 151.983 95.638 151.847 95.254C151.715 94.87 151.649 94.438 151.649 93.958C151.649 93.482 151.715 93.052 151.847 92.668C151.983 92.28 152.177 91.95 152.429 91.678C152.681 91.406 152.985 91.196 153.341 91.048C153.701 90.9 154.105 90.826 154.553 90.826ZM154.553 96.25C155.153 96.25 155.601 96.05 155.897 95.65C156.193 95.246 156.341 94.684 156.341 93.964C156.341 93.24 156.193 92.676 155.897 92.272C155.601 91.868 155.153 91.666 154.553 91.666C154.249 91.666 153.983 91.718 153.755 91.822C153.531 91.926 153.343 92.076 153.191 92.272C153.043 92.468 152.931 92.71 152.855 92.998C152.783 93.282 152.747 93.604 152.747 93.964C152.747 94.684 152.895 95.246 153.191 95.65C153.491 96.05 153.945 96.25 154.553 96.25ZM159.813 92.14C160.005 91.724 160.241 91.4 160.521 91.168C160.801 90.932 161.143 90.814 161.547 90.814C161.675 90.814 161.797 90.828 161.913 90.856C162.033 90.884 162.139 90.928 162.231 90.988L162.153 91.786C162.129 91.886 162.069 91.936 161.973 91.936C161.917 91.936 161.835 91.924 161.727 91.9C161.619 91.876 161.497 91.864 161.361 91.864C161.169 91.864 160.997 91.892 160.845 91.948C160.697 92.004 160.563 92.088 160.443 92.2C160.327 92.308 160.221 92.444 160.125 92.608C160.033 92.768 159.949 92.952 159.873 93.16V97H158.799V90.922H159.411C159.527 90.922 159.607 90.944 159.651 90.988C159.695 91.032 159.725 91.108 159.741 91.216L159.813 92.14ZM168.414 90.922L165.024 98.794C164.988 98.874 164.942 98.938 164.886 98.986C164.834 99.034 164.752 99.058 164.64 99.058H163.848L164.958 96.646L162.45 90.922H163.374C163.466 90.922 163.538 90.946 163.59 90.994C163.646 91.038 163.684 91.088 163.704 91.144L165.33 94.972C165.394 95.14 165.448 95.316 165.492 95.5C165.548 95.312 165.608 95.134 165.672 94.966L167.25 91.144C167.274 91.08 167.314 91.028 167.37 90.988C167.43 90.944 167.496 90.922 167.568 90.922H168.414Z" fill="#999999"/>
<path d="M217.75 55.25L219.83 55.61L220.793 67.083C220.87 68.02 221.653 68.739 222.593 68.736H233.502C234.399 68.738 235.16 68.078 235.287 67.19L236.236 60.632C236.342 59.899 235.833 59.219 235.101 59.113C235.037 59.104 220.164 59.099 220.164 59.099" stroke="#999999" stroke-width="1.5" stroke-linecap="round" stroke-linejoin="round"/>
<path d="M229.125 62.7949H231.898" stroke="#999999" stroke-width="1.5" stroke-linecap="round" stroke-linejoin="round"/>
<path fill-rule="evenodd" clip-rule="evenodd" d="M222.154 72.2026C222.455 72.2026 222.698 72.4466 222.698 72.7466C222.698 73.0476 222.455 73.2916 222.154 73.2916C221.853 73.2916 221.61 73.0476 221.61 72.7466C221.61 72.4466 221.853 72.2026 222.154 72.2026Z" fill="#999999" stroke="#999999" stroke-width="1.5" stroke-linecap="round" stroke-linejoin="round"/>
<path fill-rule="evenodd" clip-rule="evenodd" d="M233.435 72.2026C233.736 72.2026 233.98 72.4466 233.98 72.7466C233.98 73.0476 233.736 73.2916 233.435 73.2916C233.134 73.2916 232.891 73.0476 232.891 72.7466C232.891 72.4466 233.134 72.2026 233.435 72.2026Z" fill="#999999" stroke="#999999" stroke-width="1.5" stroke-linecap="round" stroke-linejoin="round"/>
<path d="M222.634 95.224C222.698 95.224 222.754 95.25 222.802 95.302L223.264 95.8C222.912 96.208 222.484 96.526 221.98 96.754C221.48 96.982 220.874 97.096 220.162 97.096C219.546 97.096 218.986 96.99 218.482 96.778C217.978 96.562 217.548 96.262 217.192 95.878C216.836 95.49 216.56 95.026 216.364 94.486C216.168 93.946 216.07 93.352 216.07 92.704C216.07 92.056 216.172 91.462 216.376 90.922C216.58 90.382 216.866 89.918 217.234 89.53C217.606 89.142 218.05 88.842 218.566 88.63C219.082 88.414 219.652 88.306 220.276 88.306C220.888 88.306 221.428 88.404 221.896 88.6C222.364 88.796 222.776 89.062 223.132 89.398L222.748 89.932C222.724 89.972 222.692 90.006 222.652 90.034C222.616 90.058 222.566 90.07 222.502 90.07C222.43 90.07 222.342 90.032 222.238 89.956C222.134 89.876 221.998 89.788 221.83 89.692C221.662 89.596 221.452 89.51 221.2 89.434C220.948 89.354 220.638 89.314 220.27 89.314C219.826 89.314 219.42 89.392 219.052 89.548C218.684 89.7 218.366 89.922 218.098 90.214C217.834 90.506 217.628 90.862 217.48 91.282C217.332 91.702 217.258 92.176 217.258 92.704C217.258 93.24 217.334 93.718 217.486 94.138C217.642 94.558 217.852 94.914 218.116 95.206C218.384 95.494 218.698 95.714 219.058 95.866C219.422 96.018 219.814 96.094 220.234 96.094C220.49 96.094 220.72 96.08 220.924 96.052C221.132 96.02 221.322 95.972 221.494 95.908C221.67 95.844 221.832 95.764 221.98 95.668C222.132 95.568 222.282 95.45 222.43 95.314C222.498 95.254 222.566 95.224 222.634 95.224ZM227.656 94.264C227.164 94.28 226.744 94.32 226.396 94.384C226.052 94.444 225.77 94.524 225.55 94.624C225.334 94.724 225.176 94.842 225.076 94.978C224.98 95.114 224.932 95.266 224.932 95.434C224.932 95.594 224.958 95.732 225.01 95.848C225.062 95.964 225.132 96.06 225.22 96.136C225.312 96.208 225.418 96.262 225.538 96.298C225.662 96.33 225.794 96.346 225.934 96.346C226.122 96.346 226.294 96.328 226.45 96.292C226.606 96.252 226.752 96.196 226.888 96.124C227.028 96.052 227.16 95.966 227.284 95.866C227.412 95.766 227.536 95.652 227.656 95.524V94.264ZM224.206 91.78C224.542 91.456 224.904 91.214 225.292 91.054C225.68 90.894 226.11 90.814 226.582 90.814C226.922 90.814 227.224 90.87 227.488 90.982C227.752 91.094 227.974 91.25 228.154 91.45C228.334 91.65 228.47 91.892 228.562 92.176C228.654 92.46 228.7 92.772 228.7 93.112V97H228.226C228.122 97 228.042 96.984 227.986 96.952C227.93 96.916 227.886 96.848 227.854 96.748L227.734 96.172C227.574 96.32 227.418 96.452 227.266 96.568C227.114 96.68 226.954 96.776 226.786 96.856C226.618 96.932 226.438 96.99 226.246 97.03C226.058 97.074 225.848 97.096 225.616 97.096C225.38 97.096 225.158 97.064 224.95 97C224.742 96.932 224.56 96.832 224.404 96.7C224.252 96.568 224.13 96.402 224.038 96.202C223.95 95.998 223.906 95.758 223.906 95.482C223.906 95.242 223.972 95.012 224.104 94.792C224.236 94.568 224.45 94.37 224.746 94.198C225.042 94.026 225.428 93.886 225.904 93.778C226.38 93.666 226.964 93.602 227.656 93.586V93.112C227.656 92.64 227.554 92.284 227.35 92.044C227.146 91.8 226.848 91.678 226.456 91.678C226.192 91.678 225.97 91.712 225.79 91.78C225.614 91.844 225.46 91.918 225.328 92.002C225.2 92.082 225.088 92.156 224.992 92.224C224.9 92.288 224.808 92.32 224.716 92.32C224.644 92.32 224.582 92.302 224.53 92.266C224.478 92.226 224.434 92.178 224.398 92.122L224.206 91.78ZM231.34 92.14C231.532 91.724 231.768 91.4 232.048 91.168C232.328 90.932 232.67 90.814 233.074 90.814C233.202 90.814 233.324 90.828 233.44 90.856C233.56 90.884 233.666 90.928 233.758 90.988L233.68 91.786C233.656 91.886 233.596 91.936 233.5 91.936C233.444 91.936 233.362 91.924 233.254 91.9C233.146 91.876 233.024 91.864 232.888 91.864C232.696 91.864 232.524 91.892 232.372 91.948C232.224 92.004 232.09 92.088 231.97 92.2C231.854 92.308 231.748 92.444 231.652 92.608C231.56 92.768 231.476 92.952 231.4 93.16V97H230.326V90.922H230.938C231.054 90.922 231.134 90.944 231.178 90.988C231.222 91.032 231.252 91.108 231.268 91.216L231.34 92.14ZM236.564 97.096C236.084 97.096 235.714 96.962 235.454 96.694C235.198 96.426 235.07 96.04 235.07 95.536V91.816H234.338C234.274 91.816 234.22 91.798 234.176 91.762C234.132 91.722 234.11 91.662 234.11 91.582V91.156L235.106 91.03L235.352 89.152C235.364 89.092 235.39 89.044 235.43 89.008C235.474 88.968 235.53 88.948 235.598 88.948H236.138V91.042H237.896V91.816H236.138V95.464C236.138 95.72 236.2 95.91 236.324 96.034C236.448 96.158 236.608 96.22 236.804 96.22C236.916 96.22 237.012 96.206 237.092 96.178C237.176 96.146 237.248 96.112 237.308 96.076C237.368 96.04 237.418 96.008 237.458 95.98C237.502 95.948 237.54 95.932 237.572 95.932C237.628 95.932 237.678 95.966 237.722 96.034L238.034 96.544C237.85 96.716 237.628 96.852 237.368 96.952C237.108 97.048 236.84 97.096 236.564 97.096Z" fill="#999999"/>
<path d="M309.62 72.81C309.28 72.93 308.72 72.93 308.38 72.81C305.48 71.82 299 67.69 299 60.69C299 57.6 301.49 55.1 304.56 55.1C306.38 55.1 307.99 55.98 309 57.34C310.01 55.98 311.63 55.1 313.44 55.1C316.51 55.1 319 57.6 319 60.69C319 67.69 312.52 71.82 309.62 72.81Z" stroke="#999999" stroke-width="1.5" stroke-linecap="round" stroke-linejoin="round"/>
<path d="M289.762 89.35V92.356H293.296V93.304H289.762V97H288.598V88.402H293.896V89.35H289.762ZM297.57 94.264C297.078 94.28 296.658 94.32 296.31 94.384C295.966 94.444 295.684 94.524 295.464 94.624C295.248 94.724 295.09 94.842 294.99 94.978C294.894 95.114 294.846 95.266 294.846 95.434C294.846 95.594 294.872 95.732 294.924 95.848C294.976 95.964 295.046 96.06 295.134 96.136C295.226 96.208 295.332 96.262 295.452 96.298C295.576 96.33 295.708 96.346 295.848 96.346C296.036 96.346 296.208 96.328 296.364 96.292C296.52 96.252 296.666 96.196 296.802 96.124C296.942 96.052 297.074 95.966 297.198 95.866C297.326 95.766 297.45 95.652 297.57 95.524V94.264ZM294.12 91.78C294.456 91.456 294.818 91.214 295.206 91.054C295.594 90.894 296.024 90.814 296.496 90.814C296.836 90.814 297.138 90.87 297.402 90.982C297.666 91.094 297.888 91.25 298.068 91.45C298.248 91.65 298.384 91.892 298.476 92.176C298.568 92.46 298.614 92.772 298.614 93.112V97H298.14C298.036 97 297.956 96.984 297.9 96.952C297.844 96.916 297.8 96.848 297.768 96.748L297.648 96.172C297.488 96.32 297.332 96.452 297.18 96.568C297.028 96.68 296.868 96.776 296.7 96.856C296.532 96.932 296.352 96.99 296.16 97.03C295.972 97.074 295.762 97.096 295.53 97.096C295.294 97.096 295.072 97.064 294.864 97C294.656 96.932 294.474 96.832 294.318 96.7C294.166 96.568 294.044 96.402 293.952 96.202C293.864 95.998 293.82 95.758 293.82 95.482C293.82 95.242 293.886 95.012 294.018 94.792C294.15 94.568 294.364 94.37 294.66 94.198C294.956 94.026 295.342 93.886 295.818 93.778C296.294 93.666 296.878 93.602 297.57 93.586V93.112C297.57 92.64 297.468 92.284 297.264 92.044C297.06 91.8 296.762 91.678 296.37 91.678C296.106 91.678 295.884 91.712 295.704 91.78C295.528 91.844 295.374 91.918 295.242 92.002C295.114 92.082 295.002 92.156 294.906 92.224C294.814 92.288 294.722 92.32 294.63 92.32C294.558 92.32 294.496 92.302 294.444 92.266C294.392 92.226 294.348 92.178 294.312 92.122L294.12 91.78ZM305.32 90.922L302.842 97H301.882L299.404 90.922H300.274C300.362 90.922 300.434 90.944 300.49 90.988C300.546 91.032 300.584 91.084 300.604 91.144L302.146 95.056C302.194 95.204 302.236 95.348 302.272 95.488C302.308 95.628 302.342 95.768 302.374 95.908C302.406 95.768 302.44 95.628 302.476 95.488C302.512 95.348 302.556 95.204 302.608 95.056L304.168 91.144C304.192 91.08 304.232 91.028 304.288 90.988C304.344 90.944 304.41 90.922 304.486 90.922H305.32ZM308.697 90.826C309.141 90.826 309.541 90.9 309.897 91.048C310.253 91.196 310.557 91.406 310.809 91.678C311.061 91.95 311.253 92.28 311.385 92.668C311.521 93.052 311.589 93.482 311.589 93.958C311.589 94.438 311.521 94.87 311.385 95.254C311.253 95.638 311.061 95.966 310.809 96.238C310.557 96.51 310.253 96.72 309.897 96.868C309.541 97.012 309.141 97.084 308.697 97.084C308.249 97.084 307.845 97.012 307.485 96.868C307.129 96.72 306.825 96.51 306.573 96.238C306.321 95.966 306.127 95.638 305.991 95.254C305.859 94.87 305.793 94.438 305.793 93.958C305.793 93.482 305.859 93.052 305.991 92.668C306.127 92.28 306.321 91.95 306.573 91.678C306.825 91.406 307.129 91.196 307.485 91.048C307.845 90.9 308.249 90.826 308.697 90.826ZM308.697 96.25C309.297 96.25 309.745 96.05 310.041 95.65C310.337 95.246 310.485 94.684 310.485 93.964C310.485 93.24 310.337 92.676 310.041 92.272C309.745 91.868 309.297 91.666 308.697 91.666C308.393 91.666 308.127 91.718 307.899 91.822C307.675 91.926 307.487 92.076 307.335 92.272C307.187 92.468 307.075 92.71 306.999 92.998C306.927 93.282 306.891 93.604 306.891 93.964C306.891 94.684 307.039 95.246 307.335 95.65C307.635 96.05 308.089 96.25 308.697 96.25ZM313.958 92.14C314.15 91.724 314.386 91.4 314.666 91.168C314.946 90.932 315.288 90.814 315.692 90.814C315.82 90.814 315.942 90.828 316.058 90.856C316.178 90.884 316.284 90.928 316.376 90.988L316.298 91.786C316.274 91.886 316.214 91.936 316.118 91.936C316.062 91.936 315.98 91.924 315.872 91.9C315.764 91.876 315.642 91.864 315.506 91.864C315.314 91.864 315.142 91.892 314.99 91.948C314.842 92.004 314.708 92.088 314.588 92.2C314.472 92.308 314.366 92.444 314.27 92.608C314.178 92.768 314.094 92.952 314.018 93.16V97H312.944V90.922H313.556C313.672 90.922 313.752 90.944 313.796 90.988C313.84 91.032 313.87 91.108 313.886 91.216L313.958 92.14ZM318.443 90.922V97H317.375V90.922H318.443ZM318.671 89.014C318.671 89.118 318.649 89.216 318.605 89.308C318.565 89.396 318.509 89.476 318.437 89.548C318.369 89.616 318.287 89.67 318.191 89.71C318.099 89.75 318.001 89.77 317.897 89.77C317.793 89.77 317.695 89.75 317.603 89.71C317.515 89.67 317.437 89.616 317.369 89.548C317.301 89.476 317.247 89.396 317.207 89.308C317.167 89.216 317.147 89.118 317.147 89.014C317.147 88.91 317.167 88.812 317.207 88.72C317.247 88.624 317.301 88.542 317.369 88.474C317.437 88.402 317.515 88.346 317.603 88.306C317.695 88.266 317.793 88.246 317.897 88.246C318.001 88.246 318.099 88.266 318.191 88.306C318.287 88.346 318.369 88.402 318.437 88.474C318.509 88.542 318.565 88.624 318.605 88.72C318.649 88.812 318.671 88.91 318.671 89.014ZM322.064 97.096C321.584 97.096 321.214 96.962 320.954 96.694C320.698 96.426 320.57 96.04 320.57 95.536V91.816H319.838C319.774 91.816 319.72 91.798 319.676 91.762C319.632 91.722 319.61 91.662 319.61 91.582V91.156L320.606 91.03L320.852 89.152C320.864 89.092 320.89 89.044 320.93 89.008C320.974 88.968 321.03 88.948 321.098 88.948H321.638V91.042H323.396V91.816H321.638V95.464C321.638 95.72 321.7 95.91 321.824 96.034C321.948 96.158 322.108 96.22 322.304 96.22C322.416 96.22 322.512 96.206 322.592 96.178C322.676 96.146 322.748 96.112 322.808 96.076C322.868 96.04 322.918 96.008 322.958 95.98C323.002 95.948 323.04 95.932 323.072 95.932C323.128 95.932 323.178 95.966 323.222 96.034L323.534 96.544C323.35 96.716 323.128 96.852 322.868 96.952C322.608 97.048 322.34 97.096 322.064 97.096ZM328.531 93.298C328.531 93.05 328.495 92.824 328.423 92.62C328.355 92.412 328.253 92.234 328.117 92.086C327.985 91.934 327.823 91.818 327.631 91.738C327.439 91.654 327.221 91.612 326.977 91.612C326.465 91.612 326.059 91.762 325.759 92.062C325.463 92.358 325.279 92.77 325.207 93.298H328.531ZM329.395 96.148C329.263 96.308 329.105 96.448 328.921 96.568C328.737 96.684 328.539 96.78 328.327 96.856C328.119 96.932 327.903 96.988 327.679 97.024C327.455 97.064 327.233 97.084 327.013 97.084C326.593 97.084 326.205 97.014 325.849 96.874C325.497 96.73 325.191 96.522 324.931 96.25C324.675 95.974 324.475 95.634 324.331 95.23C324.187 94.826 324.115 94.362 324.115 93.838C324.115 93.414 324.179 93.018 324.307 92.65C324.439 92.282 324.627 91.964 324.871 91.696C325.115 91.424 325.413 91.212 325.765 91.06C326.117 90.904 326.513 90.826 326.953 90.826C327.317 90.826 327.653 90.888 327.961 91.012C328.273 91.132 328.541 91.308 328.765 91.54C328.993 91.768 329.171 92.052 329.299 92.392C329.427 92.728 329.491 93.112 329.491 93.544C329.491 93.712 329.473 93.824 329.437 93.88C329.401 93.936 329.333 93.964 329.233 93.964H325.171C325.183 94.348 325.235 94.682 325.327 94.966C325.423 95.25 325.555 95.488 325.723 95.68C325.891 95.868 326.091 96.01 326.323 96.106C326.555 96.198 326.815 96.244 327.103 96.244C327.371 96.244 327.601 96.214 327.793 96.154C327.989 96.09 328.157 96.022 328.297 95.95C328.437 95.878 328.553 95.812 328.645 95.752C328.741 95.688 328.823 95.656 328.891 95.656C328.979 95.656 329.047 95.69 329.095 95.758L329.395 96.148Z" fill="#999999"/>
<path fill-rule="evenodd" clip-rule="evenodd" d="M390.985 67.3462C387.117 67.3462 383.814 67.931 383.814 70.2729C383.814 72.6148 387.096 73.2205 390.985 73.2205C394.853 73.2205 398.154 72.6348 398.154 70.2938C398.154 67.9529 394.874 67.3462 390.985 67.3462Z" stroke="#999999" stroke-width="1.5" stroke-linecap="round" stroke-linejoin="round"/>
<path fill-rule="evenodd" clip-rule="evenodd" d="M390.985 64.0059C393.523 64.0059 395.58 61.9478 395.58 59.4097C395.58 56.8716 393.523 54.8145 390.985 54.8145C388.447 54.8145 386.389 56.8716 386.389 59.4097C386.38 61.9392 388.424 63.9973 390.953 64.0059H390.985Z" stroke="#999999" stroke-width="1.42857" stroke-linecap="round" stroke-linejoin="round"/>
<path d="M377.636 92.86C377.968 92.86 378.26 92.816 378.512 92.728C378.768 92.64 378.982 92.518 379.154 92.362C379.33 92.202 379.462 92.012 379.55 91.792C379.638 91.572 379.682 91.33 379.682 91.066C379.682 90.518 379.512 90.09 379.172 89.782C378.836 89.474 378.324 89.32 377.636 89.32H376.256V92.86H377.636ZM377.636 88.402C378.18 88.402 378.652 88.466 379.052 88.594C379.456 88.718 379.79 88.896 380.054 89.128C380.318 89.36 380.514 89.64 380.642 89.968C380.774 90.296 380.84 90.662 380.84 91.066C380.84 91.466 380.77 91.832 380.63 92.164C380.49 92.496 380.284 92.782 380.012 93.022C379.744 93.262 379.41 93.45 379.01 93.586C378.614 93.718 378.156 93.784 377.636 93.784H376.256V97H375.098V88.402H377.636ZM382.95 92.14C383.142 91.724 383.378 91.4 383.658 91.168C383.938 90.932 384.28 90.814 384.684 90.814C384.812 90.814 384.934 90.828 385.05 90.856C385.17 90.884 385.276 90.928 385.368 90.988L385.29 91.786C385.266 91.886 385.206 91.936 385.11 91.936C385.054 91.936 384.972 91.924 384.864 91.9C384.756 91.876 384.634 91.864 384.498 91.864C384.306 91.864 384.134 91.892 383.982 91.948C383.834 92.004 383.7 92.088 383.58 92.2C383.464 92.308 383.358 92.444 383.262 92.608C383.17 92.768 383.086 92.952 383.01 93.16V97H381.936V90.922H382.548C382.664 90.922 382.744 90.944 382.788 90.988C382.832 91.032 382.862 91.108 382.878 91.216L382.95 92.14ZM388.623 90.826C389.067 90.826 389.467 90.9 389.823 91.048C390.179 91.196 390.483 91.406 390.735 91.678C390.987 91.95 391.179 92.28 391.311 92.668C391.447 93.052 391.515 93.482 391.515 93.958C391.515 94.438 391.447 94.87 391.311 95.254C391.179 95.638 390.987 95.966 390.735 96.238C390.483 96.51 390.179 96.72 389.823 96.868C389.467 97.012 389.067 97.084 388.623 97.084C388.175 97.084 387.771 97.012 387.411 96.868C387.055 96.72 386.751 96.51 386.499 96.238C386.247 95.966 386.053 95.638 385.917 95.254C385.785 94.87 385.719 94.438 385.719 93.958C385.719 93.482 385.785 93.052 385.917 92.668C386.053 92.28 386.247 91.95 386.499 91.678C386.751 91.406 387.055 91.196 387.411 91.048C387.771 90.9 388.175 90.826 388.623 90.826ZM388.623 96.25C389.223 96.25 389.671 96.05 389.967 95.65C390.263 95.246 390.411 94.684 390.411 93.964C390.411 93.24 390.263 92.676 389.967 92.272C389.671 91.868 389.223 91.666 388.623 91.666C388.319 91.666 388.053 91.718 387.825 91.822C387.601 91.926 387.413 92.076 387.261 92.272C387.113 92.468 387.001 92.71 386.925 92.998C386.853 93.282 386.817 93.604 386.817 93.964C386.817 94.684 386.965 95.246 387.261 95.65C387.561 96.05 388.015 96.25 388.623 96.25ZM393.149 97V91.834L392.477 91.756C392.389 91.736 392.319 91.706 392.267 91.666C392.215 91.622 392.189 91.56 392.189 91.48V91.042H393.149V90.706C393.149 90.334 393.207 89.994 393.323 89.686C393.439 89.374 393.613 89.106 393.845 88.882C394.077 88.658 394.365 88.484 394.709 88.36C395.057 88.236 395.459 88.174 395.915 88.174C396.067 88.174 396.223 88.184 396.383 88.204C396.543 88.224 396.681 88.254 396.797 88.294L396.755 88.852C396.751 88.892 396.735 88.92 396.707 88.936C396.683 88.952 396.649 88.962 396.605 88.966C396.561 88.97 396.505 88.972 396.437 88.972C396.373 88.968 396.299 88.966 396.215 88.966C395.503 88.966 394.987 89.114 394.667 89.41C394.347 89.702 394.187 90.144 394.187 90.736V91.042H397.859V97H396.785V91.816H394.217V97H393.149ZM400.712 88.162V97H399.644V88.162H400.712ZM406.512 93.298C406.512 93.05 406.476 92.824 406.404 92.62C406.336 92.412 406.234 92.234 406.098 92.086C405.966 91.934 405.804 91.818 405.612 91.738C405.42 91.654 405.202 91.612 404.958 91.612C404.446 91.612 404.04 91.762 403.74 92.062C403.444 92.358 403.26 92.77 403.188 93.298H406.512ZM407.376 96.148C407.244 96.308 407.086 96.448 406.902 96.568C406.718 96.684 406.52 96.78 406.308 96.856C406.1 96.932 405.884 96.988 405.66 97.024C405.436 97.064 405.214 97.084 404.994 97.084C404.574 97.084 404.186 97.014 403.83 96.874C403.478 96.73 403.172 96.522 402.912 96.25C402.656 95.974 402.456 95.634 402.312 95.23C402.168 94.826 402.096 94.362 402.096 93.838C402.096 93.414 402.16 93.018 402.288 92.65C402.42 92.282 402.608 91.964 402.852 91.696C403.096 91.424 403.394 91.212 403.746 91.06C404.098 90.904 404.494 90.826 404.934 90.826C405.298 90.826 405.634 90.888 405.942 91.012C406.254 91.132 406.522 91.308 406.746 91.54C406.974 91.768 407.152 92.052 407.28 92.392C407.408 92.728 407.472 93.112 407.472 93.544C407.472 93.712 407.454 93.824 407.418 93.88C407.382 93.936 407.314 93.964 407.214 93.964H403.152C403.164 94.348 403.216 94.682 403.308 94.966C403.404 95.25 403.536 95.488 403.704 95.68C403.872 95.868 404.072 96.01 404.304 96.106C404.536 96.198 404.796 96.244 405.084 96.244C405.352 96.244 405.582 96.214 405.774 96.154C405.97 96.09 406.138 96.022 406.278 95.95C406.418 95.878 406.534 95.812 406.626 95.752C406.722 95.688 406.804 95.656 406.872 95.656C406.96 95.656 407.028 95.69 407.076 95.758L407.376 96.148Z" fill="#999999"/>
<defs>
<filter id="filter0_d_23_7685" x="0" y="0" width="464" height="134" filterUnits="userSpaceOnUse" color-interpolation-filters="sRGB">
<feFlood flood-opacity="0" result="BackgroundImageFix"/>
<feColorMatrix in="SourceAlpha" type="matrix" values="0 0 0 0 0 0 0 0 0 0 0 0 0 0 0 0 0 0 127 0" result="hardAlpha"/>
<feOffset/>
<feGaussianBlur stdDeviation="9"/>
<feComposite in2="hardAlpha" operator="out"/>
<feColorMatrix type="matrix" values="0 0 0 0 0 0 0 0 0 0 0 0 0 0 0 0 0 0 0.1 0"/>
<feBlend mode="normal" in2="BackgroundImageFix" result="effect1_dropShadow_23_7685"/>
<feBlend mode="normal" in="SourceGraphic" in2="effect1_dropShadow_23_7685" result="shape"/>
</filter>
</defs>
</svg>
