<svg width="14" height="14" viewBox="0 0 14 14" fill="none" xmlns="http://www.w3.org/2000/svg">
<path d="M3.94801 11.1075L6.04095 12.7278C6.31101 12.9979 6.91864 13.1329 7.32372 13.1329H9.88927C10.6994 13.1329 11.5771 12.5253 11.7797 11.7151L13.4 6.78656C13.7376 5.84136 13.13 5.03118 12.1172 5.03118H9.41667C9.01158 5.03118 8.67401 4.69361 8.74153 4.22101L9.0791 2.06055C9.21413 1.45292 8.80904 0.777778 8.20141 0.575235C7.6613 0.372692 6.98615 0.64275 6.7161 1.04784L3.94801 5.16621" stroke="#999999" stroke-miterlimit="10"/>
<path d="M0.506358 11.1074V4.49102C0.506358 3.54582 0.911444 3.20825 1.85664 3.20825H2.53179C3.47699 3.20825 3.88208 3.54582 3.88208 4.49102V11.1074C3.88208 12.0526 3.47699 12.3902 2.53179 12.3902H1.85664C0.911444 12.3902 0.506358 12.0526 0.506358 11.1074Z" stroke="#999999" stroke-linecap="round" stroke-linejoin="round"/>
</svg>
