<svg width="20" height="20" viewBox="0 0 20 20" fill="none" xmlns="http://www.w3.org/2000/svg">
<path d="M8.99982 0C8.39827 0 7.99984 0.39843 7.99984 0.99998V7.99984H0.99998C0.39843 7.99984 0 8.39827 0 8.99982V10.9998C0 11.6013 0.39843 11.9998 0.99998 11.9998H7.99984V18.9996C7.99984 19.6012 8.39827 19.9996 8.99982 19.9996H10.9998C11.6013 19.9996 11.9998 19.6012 11.9998 18.9996V11.9998H18.9996C19.6012 11.9998 19.9996 11.6013 19.9996 10.9998V8.99982C19.9996 8.39827 19.6012 7.99984 18.9996 7.99984H11.9998V0.99998C11.9998 0.39843 11.6013 0 10.9998 0H8.99982Z" fill="#FACD02"/>
</svg>
