<svg width="20" height="19" viewBox="0 0 20 19" fill="none" xmlns="http://www.w3.org/2000/svg">
<path fill-rule="evenodd" clip-rule="evenodd" d="M11.1323 1.4633L13.0062 5.20691C13.1899 5.57443 13.5444 5.82927 13.9555 5.88824L18.1474 6.49164C19.1831 6.64117 19.5953 7.89641 18.8457 8.61565L15.8144 11.5284C15.5165 11.8148 15.3809 12.2266 15.4514 12.6309L16.1668 16.7431C16.3429 17.7604 15.2602 18.5365 14.3345 18.0552L10.5878 16.1123C10.2205 15.9217 9.78058 15.9217 9.41221 16.1123L5.66549 18.0552C4.73975 18.5365 3.65706 17.7604 3.8343 16.7431L4.54863 12.6309C4.6191 12.2266 4.48349 11.8148 4.18559 11.5284L1.15426 8.61565C0.404707 7.89641 0.816857 6.64117 1.85257 6.49164L6.04454 5.88824C6.45562 5.82927 6.81118 5.57443 6.99483 5.20691L8.86766 1.4633C9.33106 0.537668 10.6689 0.537668 11.1323 1.4633Z" fill="#FACD02" stroke="#FACD02" stroke-width="1.5" stroke-linecap="round" stroke-linejoin="round"/>
</svg>
